<svg id="Layer_1" data-name="Layer 1" xmlns="http://www.w3.org/2000/svg" xmlns:xlink="http://www.w3.org/1999/xlink" viewBox="0 0 953.74 297.43"><defs><style>.cls-1,.cls-2,.cls-3,.cls-4{fill:none;}.cls-1,.cls-2,.cls-3,.cls-4,.cls-5{stroke-linecap:round;stroke-linejoin:round;stroke-width:13px;}.cls-1{stroke:url(#linear-gradient);}.cls-2,.cls-4,.cls-5{stroke:#8133ff;}.cls-2,.cls-3{fill-rule:evenodd;}.cls-3{stroke:#000;}.cls-5{fill:#a0cd60;}.cls-6{font-size:195.2px;fill:#fff;font-family:Poppins-Regular, Poppins;letter-spacing:0.08em;}</style><linearGradient id="linear-gradient" x1="180.6" y1="333.09" x2="480.94" y2="333.09" gradientUnits="userSpaceOnUse"><stop offset="0" stop-color="#f29a2e"/><stop offset="1" stop-color="#f24c27"/></linearGradient></defs><path class="cls-1" d="M330.77,245.84a63.15,63.15,0,0,1,57.77,37.6A52.45,52.45,0,0,0,423,312.89a111.64,111.64,0,0,1,24,9.5c47.61,25.6,29.36,97.95-24.68,97.95H239.23c-54,0-72.29-72.35-24.68-97.95a111.64,111.64,0,0,1,24-9.5A52.45,52.45,0,0,0,273,283.44,63.15,63.15,0,0,1,330.77,245.84Z" transform="translate(-180.6 -239.34)"/><polyline class="cls-2" points="150.24 93.83 150.24 145.35 150.24 180.99 150.24 256.5"/><path class="cls-3" d="M330.77,333.09" transform="translate(-180.6 -239.34)"/><line class="cls-4" x1="150.24" y1="123.7" x2="134.75" y2="110.11"/><line class="cls-5" x1="150.24" y1="162.75" x2="171.97" y2="126.31"/><text class="cls-6" transform="translate(343.64 185.77) scale(1.01 1)">klaft</text></svg>