<?xml version="1.0" encoding="utf-8"?>
<!-- Generator: Adobe Illustrator 24.2.0, SVG Export Plug-In . SVG Version: 6.00 Build 0)  -->
<svg version="1.1" id="Layer_1" xmlns="http://www.w3.org/2000/svg" xmlns:xlink="http://www.w3.org/1999/xlink" x="0px" y="0px"
	 viewBox="0 0 1000 1000" style="enable-background:new 0 0 1000 1000;" xml:space="preserve">
<style type="text/css">
	.st0{fill:#7359A6;}
</style>
<g>
	<g>
		<path class="st0" d="M410.1,466.4c5.1,3.1,9.4,7.4,12.1,13.3c3.1,5.9,4.7,12.9,4.7,20.7c0,7.8-1.6,14.4-5.1,20.3
			c-3.1,5.9-7.8,10.1-13.7,12.9c-5.9,3.1-12.9,4.7-20.3,4.7c-4.3,0-8.2-0.8-12.1-2.3c-3.9-1.2-7.4-3.5-10.1-6.2v40.6H343V463.3h19.5
			l2,8.6c8.6-7,17.9-10.5,27.7-10.5C398.7,461.4,405,462.9,410.1,466.4z M397.6,514.8c3.9-3.5,5.9-8.2,5.9-14c0-5.9-2-10.5-5.5-14.4
			c-3.5-3.9-8.2-5.5-13.3-5.5c-4.3,0-8.2,0.8-11.3,2.7c-3.1,1.6-5.5,4.3-7.4,7.8V509c1.2,3.5,3.5,6.2,6.2,8.2
			c3.1,2,6.6,3.1,10.9,3.1C389,520.3,393.7,518.3,397.6,514.8z"/>
		<path class="st0" d="M440.1,480.1c3.5-5.5,8.2-10.1,14.4-13.3c6.2-3.1,13.3-5.1,21.1-5.1s14.8,1.6,21.1,5.1
			c5.9,3.1,10.5,7.8,14,13.7c3.5,5.9,5.1,12.1,5.1,19.5c0,7.4-1.6,13.7-5.1,19.5c-3.5,5.9-7.8,10.5-14,13.7
			c-5.9,3.1-13.3,5.1-21.1,5.1s-14.8-1.6-21.1-4.7c-6.2-3.1-10.9-7.4-14.4-13.3c-3.1-5.9-5.1-12.5-5.1-20.3
			C435,492.6,437,486,440.1,480.1z M463.1,514c3.1,3.9,7.4,5.5,12.5,5.5c5.1,0,9.4-2,12.5-5.5c3.1-3.5,4.7-8.6,4.7-14
			c0-5.9-1.6-10.5-4.7-14c-3.5-3.9-7.4-5.9-12.9-5.9c-5.1,0-9,2-12.5,5.5c-3.1,3.9-4.7,8.6-4.7,14.4
			C458.1,505.5,459.6,510.1,463.1,514z"/>
		<path class="st0" d="M552.5,407.9v128.4h-22.6V407.9H552.5z"/>
		<path class="st0" d="M645.3,465.3l-46,105.3h-21.9l17.2-37.8l-32.8-67.5h25.8l18.7,42.1l18.7-42.1L645.3,465.3z"/>
		<path class="st0" d="M732,465.3v71c0,6.6-2,12.9-5.9,18.3c-3.9,5.5-9,9.8-15.6,12.9c-6.6,3.1-13.7,4.7-21.5,4.7
			c-5.9,0-10.9-0.8-15.2-2c-4.3-1.6-7.8-3.1-10.5-4.7c-3.1-2-6.2-4.3-9.8-7.4l13.3-15.6c3.1,3.1,6.6,5.5,9.8,7
			c3.1,1.6,7.4,2.7,12.1,2.7c5.9,0,10.5-1.6,14.4-4.3s5.9-7,5.9-12.1v-10.1c-2.3,3.5-5.5,6.6-10.1,9s-10.1,3.5-16.4,3.5
			s-12.5-1.6-17.9-5.1c-5.5-3.1-9.8-7.8-13.3-13.7c-3.1-5.9-5.1-12.1-5.1-19.1c0-7,1.6-13.7,5.1-19.5c3.5-5.9,7.8-10.5,13.7-14
			c5.5-3.5,11.3-5.1,17.6-5.1c5.9,0,10.9,0.8,15.6,2.3c4.7,1.6,8.2,3.9,10.5,6.6l2.3-5.5H732z M708.9,509v-17.6
			c-1.6-3.5-3.9-6.2-7.4-8.2s-7.4-3.1-12.1-3.1c-5.5,0-10.1,2-14,5.5c-3.9,3.5-5.9,8.2-5.9,14c0,5.5,2,10.5,5.9,14.4
			c3.9,3.9,8.6,5.9,14,5.9C698.4,519.5,705,516,708.9,509z"/>
		<path class="st0" d="M750.7,480.1c3.5-5.9,8.2-10.1,14.4-13.7c6.2-3.1,13.3-5.1,21.1-5.1s14.8,1.6,21.1,5.1
			c5.9,3.1,10.5,7.8,14,13.7c3.1,5.9,5.1,12.1,5.1,19.5s-1.6,13.7-5.1,19.5c-3.1,5.9-7.8,10.5-14,13.7c-5.9,3.1-13.3,5.1-21.1,5.1
			s-14.8-1.6-21.1-4.7c-6.2-3.1-10.9-7.4-14.4-13.3c-3.5-5.9-5.1-12.5-5.1-20.7C745.6,492.6,747.2,486,750.7,480.1z M773.3,514
			c3.1,3.9,7.4,5.5,12.5,5.5s9.4-2,12.5-5.5c3.1-3.5,4.7-8.6,4.7-14c0-5.9-1.6-10.5-4.7-14c-3.1-3.5-7.4-5.5-12.5-5.5s-9,2-12.5,5.5
			c-3.5,3.5-5.1,8.6-5.1,14C768.6,505.5,770.2,510.1,773.3,514z"/>
		<path class="st0" d="M906.4,467.6c4.7,3.9,6.6,9,7,15.2v53.5h-23v-44.9c-0.4-7-3.9-10.5-10.5-10.5c-5.1,0-9.4,2.3-12.5,7.4
			c-3.1,5.1-4.7,11.3-4.7,18.7v29.3H840v-71h20.7l1.6,11.3c2.7-4.7,6.2-8.2,10.9-10.9c4.7-2.7,10.1-3.9,16.4-3.9
			C896.2,461.8,902.1,463.7,906.4,467.6z"/>
	</g>
	<path class="st0" d="M246.2,464.1c-3.9-2.3-9-2.3-13.3,0l-30.4,17.9l-20.7,11.7l-30.4,17.9c-3.9,2.3-9,2.3-13.3,0l-24.2-14
		c-3.9-2.3-6.6-6.6-6.6-11.3v-27.7c0-4.7,2.3-9,6.6-11.3l23.8-13.7c3.9-2.3,9-2.3,13.3,0l23.8,13.7c3.9,2.3,6.6,6.6,6.6,11.3v17.9
		l20.7-12.1v-17.9c0-4.7-2.3-9-6.6-11.3l-44.1-25.8c-3.9-2.3-9-2.3-13.3,0l-44.9,25.8c-4.3,2.3-6.6,6.6-6.6,11.3v51.9
		c0,4.7,2.3,9,6.6,11.3l44.9,25.8c3.9,2.3,9,2.3,13.3,0l30.4-17.6l20.7-12.1l30.4-17.6c3.9-2.3,9-2.3,13.3,0L270,502
		c3.9,2.3,6.6,6.6,6.6,11.3V541c0,4.7-2.3,9-6.6,11.3l-23.8,14c-3.9,2.3-9,2.3-13.3,0l-23.8-13.7c-3.9-2.3-6.6-6.6-6.6-11.3v-17.9
		l-20.7,12.1v17.9c0,4.7,2.3,9,6.6,11.3l44.9,25.8c3.9,2.3,9,2.3,13.3,0l44.9-25.8c3.9-2.3,6.6-6.6,6.6-11.3v-51.9
		c0-4.7-2.3-9-6.6-11.3L246.2,464.1z"/>
</g>
</svg>
